<mxfile host="65bd71144e">
    <diagram id="YjC-V1jiLNOm3QlCypXk" name="Page-1">
        <mxGraphModel dx="1039" dy="626" grid="1" gridSize="10" guides="1" tooltips="1" connect="1" arrows="1" fold="1" page="1" pageScale="1" pageWidth="850" pageHeight="1100" math="0" shadow="0">
            <root>
                <mxCell id="0"/>
                <mxCell id="1" parent="0"/>
                <mxCell id="2" value="" style="strokeWidth=1;shadow=0;dashed=0;align=center;html=1;shape=mxgraph.mockup.containers.browserWindow;rSize=0;strokeColor=#FFD700;strokeColor2=#008cff;strokeColor3=#c4c4c4;mainText=,;recursiveResize=0;fillColor=#121212;" parent="1" vertex="1">
                    <mxGeometry x="30" y="50" width="780" height="770" as="geometry"/>
                </mxCell>
                <mxCell id="3" value="Contact" style="strokeWidth=1;shadow=0;dashed=0;align=center;html=1;shape=mxgraph.mockup.containers.anchor;fontSize=17;fontColor=#666666;align=left;" parent="2" vertex="1">
                    <mxGeometry x="60" y="12" width="110" height="26" as="geometry"/>
                </mxCell>
                <mxCell id="4" value="https://www.draw.io" style="strokeWidth=1;shadow=0;dashed=0;align=center;html=1;shape=mxgraph.mockup.containers.anchor;rSize=0;fontSize=17;fontColor=#666666;align=left;" parent="2" vertex="1">
                    <mxGeometry x="130" y="60" width="250" height="26" as="geometry"/>
                </mxCell>
                <mxCell id="6" value="" style="strokeColor=#FFFFFF;verticalLabelPosition=bottom;shadow=0;dashed=0;verticalAlign=top;strokeWidth=2;html=1;shape=mxgraph.mockup.misc.copyrightIcon;labelBorderColor=none;fontColor=#333333;fillColor=#121212;" parent="2" vertex="1">
                    <mxGeometry x="60" y="730" width="25" height="25" as="geometry"/>
                </mxCell>
                <mxCell id="15" value="" style="verticalLabelPosition=bottom;shadow=0;dashed=0;align=center;html=1;verticalAlign=top;strokeWidth=1;shape=mxgraph.mockup.misc.mail2;strokeColor=#FFFFFF;fillColor=#FE16D0;" parent="2" vertex="1">
                    <mxGeometry x="260" y="660" width="80" height="50" as="geometry"/>
                </mxCell>
                <mxCell id="16" value="" style="strokeColor=#121212;verticalLabelPosition=bottom;shadow=0;dashed=0;verticalAlign=top;strokeWidth=2;html=1;shape=mxgraph.mockup.misc.shareIcon;fillColor=#39FF14;" parent="2" vertex="1">
                    <mxGeometry x="430" y="660" width="60" height="50" as="geometry"/>
                </mxCell>
                <mxCell id="28" value="From" style="strokeWidth=1;shadow=0;dashed=0;align=center;html=1;shape=mxgraph.mockup.forms.anchor;align=right;spacingRight=2;fontColor=#FFFFFF;" parent="2" vertex="1">
                    <mxGeometry x="140" y="340" width="50" height="18" as="geometry"/>
                </mxCell>
                <mxCell id="29" value="john@jgraph.com" style="strokeWidth=1;shadow=0;dashed=0;align=center;html=1;shape=mxgraph.mockup.forms.rrect;fillColor=#ffffff;rSize=0;fontColor=#666666;align=left;spacingLeft=3;strokeColor=#999999;" parent="2" vertex="1">
                    <mxGeometry x="215" y="340" width="350" height="18" as="geometry"/>
                </mxCell>
                <mxCell id="30" value="Subject" style="strokeWidth=1;shadow=0;dashed=0;align=center;html=1;shape=mxgraph.mockup.forms.anchor;align=right;spacingRight=2;fontColor=#FFFFFF;" parent="2" vertex="1">
                    <mxGeometry x="140" y="375" width="50" height="18" as="geometry"/>
                </mxCell>
                <mxCell id="31" value="Greeting" style="strokeWidth=1;shadow=0;dashed=0;align=center;html=1;shape=mxgraph.mockup.forms.rrect;fillColor=#ffffff;rSize=0;fontColor=#666666;align=left;spacingLeft=3;strokeColor=#999999;" parent="2" vertex="1">
                    <mxGeometry x="215" y="375" width="350" height="18" as="geometry"/>
                </mxCell>
                <mxCell id="32" value="To" style="strokeWidth=1;shadow=0;dashed=0;align=center;html=1;shape=mxgraph.mockup.forms.anchor;align=right;spacingRight=2;fontColor=#FFFFFF;" parent="2" vertex="1">
                    <mxGeometry x="140" y="410" width="50" height="18" as="geometry"/>
                </mxCell>
                <mxCell id="33" value="fred@jgraph.com" style="strokeWidth=1;shadow=0;dashed=0;align=center;html=1;shape=mxgraph.mockup.forms.rrect;fillColor=#ffffff;rSize=0;fontColor=#666666;align=left;spacingLeft=3;strokeColor=#999999;" parent="2" vertex="1">
                    <mxGeometry x="215" y="410" width="350" height="18" as="geometry"/>
                </mxCell>
                <mxCell id="34" value="CC" style="strokeWidth=1;shadow=0;dashed=0;align=center;html=1;shape=mxgraph.mockup.forms.anchor;align=right;spacingRight=2;fontColor=#FFFFFF;" parent="2" vertex="1">
                    <mxGeometry x="140" y="445" width="50" height="18" as="geometry"/>
                </mxCell>
                <mxCell id="35" value="" style="strokeWidth=1;shadow=0;dashed=0;align=center;html=1;shape=mxgraph.mockup.forms.rrect;fillColor=#ffffff;rSize=0;fontColor=#666666;align=left;spacingLeft=3;strokeColor=#999999;" parent="2" vertex="1">
                    <mxGeometry x="215" y="445" width="350" height="18" as="geometry"/>
                </mxCell>
                <mxCell id="36" value="BCC" style="strokeWidth=1;shadow=0;dashed=0;align=center;html=1;shape=mxgraph.mockup.forms.anchor;align=right;spacingRight=2;fontColor=#FFFFFF;" parent="2" vertex="1">
                    <mxGeometry x="140" y="480" width="50" height="18" as="geometry"/>
                </mxCell>
                <mxCell id="37" value="" style="strokeWidth=1;shadow=0;dashed=0;align=center;html=1;shape=mxgraph.mockup.forms.rrect;fillColor=#ffffff;rSize=0;fontColor=#666666;align=left;spacingLeft=3;strokeColor=#999999;" parent="2" vertex="1">
                    <mxGeometry x="215" y="480" width="350" height="18" as="geometry"/>
                </mxCell>
                <mxCell id="38" value="Lorem ipsum dolor sit amet, consectetur adipisicing elit, sed do eiusmod tempor incididunt ut labore et dolore magna aliqua. Ut enim ad minim veniam, quis nostrud exercitation ullamco laboris nisi ut aliquip ex ea commodo consequat. Duis aute irure dolor in reprehenderit in voluptate velit esse cillum dolore eu fugiat nulla pariatur. Excepteur sint occaecat cupidatat non proident, sunt in culpa qui officia deserunt mollit anim id est laborum." style="strokeWidth=1;shadow=0;dashed=0;align=center;html=1;shape=mxgraph.mockup.forms.rrect;fillColor=#ffffff;rSize=0;fontColor=#666666;align=left;spacingLeft=3;strokeColor=#999999;verticalAlign=top;whiteSpace=wrap;" parent="2" vertex="1">
                    <mxGeometry x="165" y="515" width="400" height="125" as="geometry"/>
                </mxCell>
                <mxCell id="50" value="" style="edgeStyle=none;html=1;" parent="2" target="4" edge="1">
                    <mxGeometry relative="1" as="geometry">
                        <mxPoint x="480" y="137.80000000000007" as="sourcePoint"/>
                    </mxGeometry>
                </mxCell>
                <mxCell id="53" value="" style="strokeWidth=9;shadow=0;dashed=0;align=center;html=1;shape=mxgraph.mockup.rrect;rSize=10;fillColor=#F5F5DC;strokeColor=#121212;labelBackgroundColor=#A2FE32;fontFamily=Oswald;fontSource=https%3A%2F%2Ffonts.googleapis.com%2Fcss%3Ffamily%3DOswald;" vertex="1" parent="2">
                    <mxGeometry x="550" y="150" width="45" height="30" as="geometry"/>
                </mxCell>
                <mxCell id="54" value="&lt;font style=&quot;color: rgb(254, 22, 208);&quot; face=&quot;Poppins&quot;&gt;GitHub&lt;/font&gt;" style="strokeWidth=2;shadow=0;dashed=0;align=center;html=1;shape=mxgraph.mockup.leftButton;rSize=10;fontSize=17;fontColor=#F5F5DC;fontStyle=1;fillColor=#121212;strokeColor=#FE16D0;resizeHeight=1;fontFamily=Oswald;fontSource=https%3A%2F%2Ffonts.googleapis.com%2Fcss%3Ffamily%3DOswald;" vertex="1" parent="53">
                    <mxGeometry width="95" height="30" relative="1" as="geometry"/>
                </mxCell>
                <mxCell id="55" value="" style="strokeWidth=9;shadow=0;dashed=0;align=center;html=1;shape=mxgraph.mockup.rrect;rSize=10;fillColor=#F5F5DC;strokeColor=#121212;labelBackgroundColor=#A2FE32;fontFamily=Oswald;fontSource=https%3A%2F%2Ffonts.googleapis.com%2Fcss%3Ffamily%3DOswald;" vertex="1" parent="2">
                    <mxGeometry x="650" y="150" width="50" height="30" as="geometry"/>
                </mxCell>
                <mxCell id="56" value="&lt;font style=&quot;color: rgb(18, 18, 18);&quot; face=&quot;Poppins&quot;&gt;LinkedIn&lt;/font&gt;" style="strokeWidth=2;shadow=0;dashed=0;align=center;html=1;shape=mxgraph.mockup.leftButton;rSize=10;fontSize=17;fontColor=#F5F5DC;fontStyle=1;fillColor=#A2FE32;strokeColor=#FFFFFF;resizeHeight=1;fontFamily=Oswald;fontSource=https%3A%2F%2Ffonts.googleapis.com%2Fcss%3Ffamily%3DOswald;" vertex="1" parent="55">
                    <mxGeometry width="95" height="30" relative="1" as="geometry"/>
                </mxCell>
                <mxCell id="57" value="&lt;font data-font-src=&quot;https://fonts.googleapis.com/css?family=Poppins&quot; face=&quot;Poppins&quot; style=&quot;color: rgb(255, 255, 255);&quot;&gt;Contact&lt;/font&gt;" style="strokeWidth=9;shadow=0;dashed=0;align=center;html=1;shape=mxgraph.mockup.buttons.button;strokeColor=#121212;fontColor=#ffffff;mainText=;buttonStyle=round;fontSize=17;fontStyle=1;fillColor=#121212;whiteSpace=wrap;fontFamily=Oswald;fontSource=https%3A%2F%2Ffonts.googleapis.com%2Fcss%3Ffamily%3DOswald;" vertex="1" parent="2">
                    <mxGeometry x="30" y="145" width="120" height="40" as="geometry"/>
                </mxCell>
                <mxCell id="58" value="&lt;font face=&quot;Poppins&quot; style=&quot;color: rgb(255, 255, 255);&quot;&gt;About&lt;/font&gt;" style="text;html=1;align=center;verticalAlign=middle;whiteSpace=wrap;rounded=0;" vertex="1" parent="2">
                    <mxGeometry x="140" y="150" width="60" height="30" as="geometry"/>
                </mxCell>
                <mxCell id="65" value="&lt;font face=&quot;Poppins&quot; style=&quot;color: rgb(255, 255, 255);&quot;&gt;Gallery&lt;/font&gt;" style="text;html=1;align=center;verticalAlign=middle;whiteSpace=wrap;rounded=0;" vertex="1" parent="2">
                    <mxGeometry x="210" y="150" width="60" height="30" as="geometry"/>
                </mxCell>
                <mxCell id="66" value="" style="line;strokeWidth=2;html=1;strokeColor=#FE16D0;" vertex="1" parent="2">
                    <mxGeometry x="50" y="180" width="80" height="10" as="geometry"/>
                </mxCell>
                <mxCell id="67" value="&lt;h2&gt;&lt;font style=&quot;color: rgb(255, 255, 255);&quot;&gt;Request a Quote or schedule a meeting.&lt;/font&gt;&lt;/h2&gt;" style="text;strokeColor=none;fillColor=none;html=1;fontSize=24;fontStyle=1;verticalAlign=middle;align=center;" vertex="1" parent="2">
                    <mxGeometry x="340" y="270" width="100" height="40" as="geometry"/>
                </mxCell>
                <mxCell id="5" value="-Email&lt;div&gt;- LinkedIn&lt;/div&gt;&lt;div&gt;- GitHub&amp;nbsp;&lt;div&gt;- Phone&lt;/div&gt;&lt;div&gt;- Social Media&lt;/div&gt;&lt;/div&gt;" style="strokeWidth=1;shadow=0;dashed=0;align=center;html=1;shape=mxgraph.mockup.text.stickyNote2;fontColor=#666666;mainText=;fontSize=17;whiteSpace=wrap;fillColor=#ffffcc;strokeColor=#F62E00;" parent="1" vertex="1">
                    <mxGeometry x="680" y="850" width="140" height="200" as="geometry"/>
                </mxCell>
                <mxCell id="51" value="&lt;div style=&quot;&quot;&gt;&lt;font style=&quot;font-size: 15px;&quot;&gt;&lt;b style=&quot;background-color: transparent;&quot;&gt;Color Scheme:&lt;/b&gt;&lt;span style=&quot;background-color: transparent;&quot;&gt;&amp;nbsp;&lt;/span&gt;&lt;/font&gt;&lt;/div&gt;&lt;div style=&quot;&quot;&gt;&lt;span style=&quot;background-color: transparent;&quot;&gt;&lt;font style=&quot;font-size: 15px;&quot;&gt;(Modern, Techy, Tropical, night-life feel)&lt;/font&gt;&lt;/span&gt;&lt;/div&gt;&lt;font style=&quot;color: rgb(18, 18, 18); font-size: 15px;&quot;&gt;&lt;div style=&quot;text-align: left;&quot;&gt;&lt;span style=&quot;background-color: transparent;&quot;&gt;- Background Color:&amp;nbsp;&lt;/span&gt;&lt;span style=&quot;background-color: transparent; line-height: 18.4px; color: rgb(0, 0, 0);&quot;&gt;#&lt;span style=&quot;line-height: 15.3333px; color: rgb(0, 0, 0);&quot;&gt;121212&lt;/span&gt;&lt;span style=&quot;color: rgb(0, 0, 0);&quot;&gt;&lt;/span&gt;&amp;nbsp;(Black)&lt;/span&gt;&lt;/div&gt;&lt;font face=&quot;Helvetica&quot;&gt;&lt;div style=&quot;text-align: left;&quot;&gt;&lt;span style=&quot;background-color: transparent;&quot;&gt;- Accent Color 1:&amp;nbsp;&lt;/span&gt;&lt;span style=&quot;background-color: transparent; line-height: 18.4px; color: rgb(0, 0, 0);&quot;&gt;#&lt;/span&gt;&lt;span style=&quot;background-color: transparent; line-height: 18.4px; color: rgb(0, 0, 0);&quot;&gt;&lt;font&gt;FE16D0&lt;/font&gt;&lt;/span&gt;&lt;span style=&quot;background-color: transparent; line-height: 18.4px; color: rgb(0, 0, 0);&quot;&gt;&amp;nbsp;(Magenta)&lt;/span&gt;&lt;/div&gt;&lt;div style=&quot;text-align: left;&quot;&gt;&lt;span style=&quot;background-color: transparent;&quot;&gt;- Accent Color 2:&amp;nbsp;&lt;/span&gt;&lt;span style=&quot;background-color: transparent; line-height: 18.4px; color: rgb(0, 0, 0);&quot;&gt;#&lt;/span&gt;&lt;span style=&quot;background-color: transparent; line-height: 18.4px; color: rgb(0, 0, 0);&quot;&gt;&lt;font&gt;A2FE32&lt;/font&gt;&lt;/span&gt;&lt;span style=&quot;background-color: transparent; line-height: 18.4px; color: rgb(0, 0, 0);&quot;&gt;&amp;nbsp;(Neon Green)&lt;/span&gt;&lt;/div&gt;&lt;/font&gt;&lt;/font&gt;&lt;div&gt;&lt;div style=&quot;text-align: left;&quot;&gt;&lt;font style=&quot;font-size: 15px;&quot;&gt;&lt;span style=&quot;scrollbar-color: light-dark(#e2e2e2, #4b4b4b)&lt;br/&gt;&#x9;&#x9;&#x9;&#x9;&#x9;light-dark(#fbfbfb, var(--dark-panel-color)); line-height: 18.4px;&quot;&gt;&lt;span style=&quot;scrollbar-color: light-dark(#e2e2e2, #4b4b4b)&lt;br/&gt;&#x9;&#x9;&#x9;&#x9;&#x9;light-dark(#fbfbfb, var(--dark-panel-color)); line-height: 18.4px;&quot;&gt;&lt;font style=&quot;&quot; face=&quot;Helvetica&quot;&gt;&lt;span style=&quot;color: rgb(102, 102, 102);&quot;&gt;- &lt;/span&gt;&lt;span style=&quot;color: rgb(102, 102, 102);&quot;&gt;&lt;font style=&quot;color: rgb(18, 18, 18);&quot;&gt;Primary Text&lt;/font&gt;&lt;/span&gt;&lt;span style=&quot;color: rgb(102, 102, 102);&quot;&gt;:&amp;nbsp;&lt;/span&gt;&lt;span style=&quot;color: rgb(0, 0, 0); scrollbar-color: light-dark(#e2e2e2, #4b4b4b)&lt;br/&gt;&#x9;&#x9;&#x9;&#x9;&#x9;light-dark(#fbfbfb, var(--dark-panel-color)); line-height: 18.4px;&quot;&gt;#&lt;/span&gt;&lt;/font&gt;&lt;/span&gt;&lt;/span&gt;&lt;span style=&quot;color: light-dark(rgb(18, 18, 18), rgb(222, 222, 222)); background-color: transparent;&quot;&gt;&lt;font&gt;FFFFFF&lt;/font&gt;&lt;/span&gt;&lt;span style=&quot;color: light-dark(rgb(18, 18, 18), rgb(222, 222, 222)); background-color: transparent;&quot;&gt;&amp;nbsp;(White)&lt;/span&gt;&lt;/font&gt;&lt;/div&gt;&lt;/div&gt;" style="strokeWidth=1;shadow=0;dashed=0;align=center;html=1;shape=mxgraph.mockup.text.stickyNote2;fontColor=#666666;mainText=;fontSize=17;whiteSpace=wrap;fillColor=#ffffcc;strokeColor=#F62E00;" vertex="1" parent="1">
                    <mxGeometry x="20" y="850" width="340" height="170" as="geometry"/>
                </mxCell>
                <mxCell id="52" value="&lt;b&gt;&lt;font style=&quot;font-size: 15px; color: rgb(18, 18, 18);&quot;&gt;Fonts&lt;/font&gt;&lt;/b&gt;&lt;div&gt;&lt;font style=&quot;font-size: 15px; color: rgb(18, 18, 18);&quot;&gt;&lt;b&gt;&amp;nbsp;(&lt;/b&gt;&lt;span&gt;Modern, Techy, Tropical, night-life feel&lt;/span&gt;&lt;b&gt;)&lt;/b&gt;&lt;br&gt;&lt;div style=&quot;&quot;&gt;&lt;span style=&quot;background-color: transparent;&quot;&gt;- Headings: &lt;b&gt;Oswald&lt;/b&gt;&lt;/span&gt;&lt;/div&gt;&lt;/font&gt;&lt;div style=&quot;&quot;&gt;&lt;font style=&quot;font-size: 15px; color: rgb(18, 18, 18);&quot;&gt;&lt;span&gt;- Body Text: &lt;b&gt;Inter&lt;/b&gt;&lt;/span&gt;&lt;br&gt;&lt;/font&gt;&lt;/div&gt;&lt;div style=&quot;&quot;&gt;&lt;font style=&quot;font-size: 15px; color: rgb(18, 18, 18);&quot;&gt;&lt;span&gt;- Gallery Captions: &lt;b&gt;Bebas Neue&lt;/b&gt;&lt;/span&gt;&lt;span&gt;&lt;br&gt;&lt;/span&gt;&lt;/font&gt;&lt;/div&gt;&lt;div style=&quot;&quot;&gt;&lt;span&gt;&lt;font style=&quot;font-size: 15px; color: rgb(18, 18, 18);&quot;&gt;- Buttons: &lt;b style=&quot;&quot;&gt;Poppins&lt;/b&gt;&lt;/font&gt;&lt;/span&gt;&lt;span style=&quot;color: rgb(102, 102, 102);&quot;&gt;&lt;br&gt;&lt;/span&gt;&lt;/div&gt;&lt;/div&gt;" style="strokeWidth=1;shadow=0;dashed=0;align=center;html=1;shape=mxgraph.mockup.text.stickyNote2;fontColor=#666666;mainText=;fontSize=17;whiteSpace=wrap;fillColor=#ffffcc;strokeColor=#F62E00;" vertex="1" parent="1">
                    <mxGeometry x="340" y="860" width="360" height="150" as="geometry"/>
                </mxCell>
            </root>
        </mxGraphModel>
    </diagram>
</mxfile>